<svg id="visual" viewBox="0 0 900 600" width="900" height="600" xmlns="http://www.w3.org/2000/svg" xmlns:xlink="http://www.w3.org/1999/xlink" version="1.1">
<g transform="translate(432.5244693300829 343.45416188744116)">
<path d="M160.2 -272.6C195.8 -226.5 204.5 -161.9 235.2 -104.5C265.9 -47.1 318.5
 3.1 316.1 48.1C313.7 93 256.2 132.6 205.4 161.3C154.6 190 110.4 207.7 63.6 225.6C16.8
  243.4 -32.6 261.3 -79.3 254.6C-125.9 247.9 -169.9 216.6 -204.6 177C-239.3 137.4
   -264.6 89.6 -275.4 37.5C-286.1 -14.6 -282.2 -70.8 -262.6 -122.5C-243.1 -174.2 -207.8
    -221.3 -161.4 -262.4C-115 -303.6 -57.5 -338.8 2.4 -342.6C62.4 -346.4 124.7 -318.7 160.2 -272.6" fill="#19216C">
    </path>
    </g>
    </svg>