<svg id="visual" viewBox="0 0 900 600" width="900" height="600" xmlns="http://www.w3.org/2000/svg" xmlns:xlink="http://www.w3.org/1999/xlink" version="1.1"><g transform="translate(17.46279712088446 -27.384157425321547)"><path d="M129.2 -197C173.9 -172.3 221.1 -147.4 249.7 -107.4C278.2 -67.4 288.1 -12.3 276.3 36.7C264.6 85.7 231.3 128.7 199.3 181.5C167.2 234.3 136.4 297.1 90.4 312.9C44.3 328.8 -17 297.8 -74.5 272.4C-132.1 247 -185.8 227.3 -227.5 190.7C-269.3 154.1 -298.9 100.7 -310.6 42.6C-322.2 -15.6 -315.7 -78.4 -288.8 -129.6C-261.9 -180.8 -214.5 -220.4 -162.9 -242C-111.4 -263.6 -55.7 -267.3 -6.7 -256.9C42.2 -246.4 84.5 -221.8 129.2 -197" fill="#19216C"></path></g></svg>